<mxfile host="Electron" agent="Mozilla/5.0 (Windows NT 10.0; Win64; x64) AppleWebKit/537.36 (KHTML, like Gecko) draw.io/28.2.5 Chrome/138.0.7204.251 Electron/37.6.1 Safari/537.36" version="28.2.5">
  <diagram name="第 1 页" id="2WmfWQ-AK2st47i3OZMU">
    <mxGraphModel dx="1188" dy="708" grid="1" gridSize="10" guides="1" tooltips="1" connect="1" arrows="1" fold="1" page="1" pageScale="1" pageWidth="827" pageHeight="1169" math="0" shadow="0">
      <root>
        <mxCell id="0" />
        <mxCell id="1" parent="0" />
        <mxCell id="yX2RTvN5pgzqg-5K6Qxc-11" value="&lt;b&gt;Player 主角&lt;/b&gt;&lt;div&gt;&lt;b&gt;&lt;br&gt;&lt;/b&gt;&lt;/div&gt;" style="swimlane;fontStyle=1;align=center;verticalAlign=top;childLayout=stackLayout;horizontal=1;startSize=26;horizontalStack=0;resizeParent=1;resizeParentMax=0;resizeLast=0;collapsible=1;marginBottom=0;whiteSpace=wrap;html=1;" vertex="1" parent="1">
          <mxGeometry x="390" y="40" width="160" height="140" as="geometry">
            <mxRectangle x="390" y="40" width="100" height="40" as="alternateBounds" />
          </mxGeometry>
        </mxCell>
        <mxCell id="yX2RTvN5pgzqg-5K6Qxc-12" value="+ _playerBullet:&amp;nbsp;&amp;nbsp;&lt;span style=&quot;font-weight: 700; text-align: center;&quot;&gt;主角子弹&lt;/span&gt;&lt;div&gt;&lt;br&gt;&lt;/div&gt;" style="text;strokeColor=none;fillColor=none;align=left;verticalAlign=top;spacingLeft=4;spacingRight=4;overflow=hidden;rotatable=0;points=[[0,0.5],[1,0.5]];portConstraint=eastwest;whiteSpace=wrap;html=1;" vertex="1" parent="yX2RTvN5pgzqg-5K6Qxc-11">
          <mxGeometry y="26" width="160" height="26" as="geometry" />
        </mxCell>
        <mxCell id="yX2RTvN5pgzqg-5K6Qxc-13" value="" style="line;strokeWidth=1;fillColor=none;align=left;verticalAlign=middle;spacingTop=-1;spacingLeft=3;spacingRight=3;rotatable=0;labelPosition=right;points=[];portConstraint=eastwest;strokeColor=inherit;" vertex="1" parent="yX2RTvN5pgzqg-5K6Qxc-11">
          <mxGeometry y="52" width="160" height="8" as="geometry" />
        </mxCell>
        <mxCell id="yX2RTvN5pgzqg-5K6Qxc-14" value="&lt;p style=&quot;margin: 0px 0px 0px 4px;&quot;&gt;+ UPDATE():&amp;nbsp;&lt;/p&gt;&lt;p style=&quot;margin: 0px 0px 0px 4px;&quot;&gt;&lt;/p&gt;&lt;ul&gt;&lt;li&gt;实现角色移动&lt;/li&gt;&lt;li&gt;子弹射击&lt;/li&gt;&lt;/ul&gt;&lt;p&gt;&lt;/p&gt;" style="text;strokeColor=none;fillColor=none;align=left;verticalAlign=top;spacingLeft=4;spacingRight=4;overflow=hidden;rotatable=0;points=[[0,0.5],[1,0.5]];portConstraint=eastwest;whiteSpace=wrap;html=1;" vertex="1" parent="yX2RTvN5pgzqg-5K6Qxc-11">
          <mxGeometry y="60" width="160" height="80" as="geometry" />
        </mxCell>
        <mxCell id="yX2RTvN5pgzqg-5K6Qxc-18" value="&lt;div&gt;&lt;b&gt;CameraController&amp;nbsp;&lt;/b&gt;&lt;/div&gt;&lt;div&gt;&lt;b&gt;摄像机控制&lt;/b&gt;&lt;/div&gt;" style="swimlane;fontStyle=1;align=center;verticalAlign=top;childLayout=stackLayout;horizontal=1;startSize=40;horizontalStack=0;resizeParent=1;resizeParentMax=0;resizeLast=0;collapsible=1;marginBottom=0;whiteSpace=wrap;html=1;" vertex="1" parent="1">
          <mxGeometry x="90" y="20" width="160" height="114" as="geometry">
            <mxRectangle x="100" y="26" width="150" height="40" as="alternateBounds" />
          </mxGeometry>
        </mxCell>
        <mxCell id="yX2RTvN5pgzqg-5K6Qxc-19" value="+ Player:&amp;nbsp; 角色&lt;div&gt;&lt;br&gt;&lt;/div&gt;" style="text;strokeColor=none;fillColor=none;align=left;verticalAlign=top;spacingLeft=4;spacingRight=4;overflow=hidden;rotatable=0;points=[[0,0.5],[1,0.5]];portConstraint=eastwest;whiteSpace=wrap;html=1;" vertex="1" parent="yX2RTvN5pgzqg-5K6Qxc-18">
          <mxGeometry y="40" width="160" height="26" as="geometry" />
        </mxCell>
        <mxCell id="yX2RTvN5pgzqg-5K6Qxc-20" value="" style="line;strokeWidth=1;fillColor=none;align=left;verticalAlign=middle;spacingTop=-1;spacingLeft=3;spacingRight=3;rotatable=0;labelPosition=right;points=[];portConstraint=eastwest;strokeColor=inherit;" vertex="1" parent="yX2RTvN5pgzqg-5K6Qxc-18">
          <mxGeometry y="66" width="160" height="8" as="geometry" />
        </mxCell>
        <mxCell id="yX2RTvN5pgzqg-5K6Qxc-21" value="&lt;p style=&quot;margin: 0px 0px 0px 4px;&quot;&gt;+ UPDATE(): 实现摄像机跟随角色&lt;/p&gt;" style="text;strokeColor=none;fillColor=none;align=left;verticalAlign=top;spacingLeft=4;spacingRight=4;overflow=hidden;rotatable=0;points=[[0,0.5],[1,0.5]];portConstraint=eastwest;whiteSpace=wrap;html=1;" vertex="1" parent="yX2RTvN5pgzqg-5K6Qxc-18">
          <mxGeometry y="74" width="160" height="40" as="geometry" />
        </mxCell>
        <mxCell id="yX2RTvN5pgzqg-5K6Qxc-25" style="edgeStyle=orthogonalEdgeStyle;rounded=0;orthogonalLoop=1;jettySize=auto;html=1;exitX=1;exitY=0.5;exitDx=0;exitDy=0;entryX=-0.019;entryY=0.144;entryDx=0;entryDy=0;entryPerimeter=0;" edge="1" parent="1" source="yX2RTvN5pgzqg-5K6Qxc-19" target="yX2RTvN5pgzqg-5K6Qxc-11">
          <mxGeometry relative="1" as="geometry" />
        </mxCell>
        <mxCell id="yX2RTvN5pgzqg-5K6Qxc-26" value="&lt;b&gt;Enemy 敌人&lt;/b&gt;" style="swimlane;fontStyle=1;align=center;verticalAlign=top;childLayout=stackLayout;horizontal=1;startSize=26;horizontalStack=0;resizeParent=1;resizeParentMax=0;resizeLast=0;collapsible=1;marginBottom=0;whiteSpace=wrap;html=1;" vertex="1" parent="1">
          <mxGeometry x="740" y="31" width="200" height="210" as="geometry">
            <mxRectangle x="660" y="31" width="110" height="30" as="alternateBounds" />
          </mxGeometry>
        </mxCell>
        <mxCell id="yX2RTvN5pgzqg-5K6Qxc-27" value="+ _Player:&amp;nbsp; 主角&lt;div&gt;&lt;br&gt;&lt;/div&gt;" style="text;strokeColor=none;fillColor=none;align=left;verticalAlign=top;spacingLeft=4;spacingRight=4;overflow=hidden;rotatable=0;points=[[0,0.5],[1,0.5]];portConstraint=eastwest;whiteSpace=wrap;html=1;" vertex="1" parent="yX2RTvN5pgzqg-5K6Qxc-26">
          <mxGeometry y="26" width="200" height="26" as="geometry" />
        </mxCell>
        <mxCell id="yX2RTvN5pgzqg-5K6Qxc-35" value="+ _enemyBullet:&amp;nbsp; 敌人子弹" style="text;strokeColor=none;fillColor=none;align=left;verticalAlign=top;spacingLeft=4;spacingRight=4;overflow=hidden;rotatable=0;points=[[0,0.5],[1,0.5]];portConstraint=eastwest;whiteSpace=wrap;html=1;" vertex="1" parent="yX2RTvN5pgzqg-5K6Qxc-26">
          <mxGeometry y="52" width="200" height="26" as="geometry" />
        </mxCell>
        <mxCell id="yX2RTvN5pgzqg-5K6Qxc-36" value="+ _state:&amp;nbsp; 状态（跟随主角，射击）" style="text;strokeColor=none;fillColor=none;align=left;verticalAlign=top;spacingLeft=4;spacingRight=4;overflow=hidden;rotatable=0;points=[[0,0.5],[1,0.5]];portConstraint=eastwest;whiteSpace=wrap;html=1;" vertex="1" parent="yX2RTvN5pgzqg-5K6Qxc-26">
          <mxGeometry y="78" width="200" height="26" as="geometry" />
        </mxCell>
        <mxCell id="yX2RTvN5pgzqg-5K6Qxc-28" value="" style="line;strokeWidth=1;fillColor=none;align=left;verticalAlign=middle;spacingTop=-1;spacingLeft=3;spacingRight=3;rotatable=0;labelPosition=right;points=[];portConstraint=eastwest;strokeColor=inherit;" vertex="1" parent="yX2RTvN5pgzqg-5K6Qxc-26">
          <mxGeometry y="104" width="200" height="8" as="geometry" />
        </mxCell>
        <mxCell id="yX2RTvN5pgzqg-5K6Qxc-29" value="&lt;p style=&quot;margin: 0px 0px 0px 4px;&quot;&gt;START：设置游戏60帧率&lt;/p&gt;&lt;p style=&quot;margin: 0px 0px 0px 4px;&quot;&gt;UPDATE:&lt;/p&gt;&lt;p style=&quot;margin: 0px 0px 0px 4px;&quot;&gt;&lt;/p&gt;&lt;ul&gt;&lt;li&gt;跟随和射击状态的&lt;span style=&quot;background-color: transparent; color: light-dark(rgb(0, 0, 0), rgb(255, 255, 255));&quot;&gt;切换&lt;/span&gt;&lt;/li&gt;&lt;li&gt;&lt;span style=&quot;background-color: transparent; color: light-dark(rgb(0, 0, 0), rgb(255, 255, 255));&quot;&gt;射击子弹&lt;/span&gt;&lt;/li&gt;&lt;/ul&gt;&lt;p&gt;&lt;/p&gt;" style="text;strokeColor=none;fillColor=none;align=left;verticalAlign=top;spacingLeft=4;spacingRight=4;overflow=hidden;rotatable=0;points=[[0,0.5],[1,0.5]];portConstraint=eastwest;whiteSpace=wrap;html=1;" vertex="1" parent="yX2RTvN5pgzqg-5K6Qxc-26">
          <mxGeometry y="112" width="200" height="98" as="geometry" />
        </mxCell>
        <mxCell id="yX2RTvN5pgzqg-5K6Qxc-30" value="主角子弹" style="swimlane;fontStyle=1;align=center;verticalAlign=top;childLayout=stackLayout;horizontal=1;startSize=30;horizontalStack=0;resizeParent=1;resizeParentMax=0;resizeLast=0;collapsible=1;marginBottom=0;whiteSpace=wrap;html=1;" vertex="1" parent="1">
          <mxGeometry x="80" y="280" width="160" height="140" as="geometry">
            <mxRectangle x="200" y="150" width="150" height="40" as="alternateBounds" />
          </mxGeometry>
        </mxCell>
        <mxCell id="yX2RTvN5pgzqg-5K6Qxc-31" value="+ _dirction:&amp;nbsp; 方向&lt;div&gt;&lt;br&gt;&lt;/div&gt;" style="text;strokeColor=none;fillColor=none;align=left;verticalAlign=top;spacingLeft=4;spacingRight=4;overflow=hidden;rotatable=0;points=[[0,0.5],[1,0.5]];portConstraint=eastwest;whiteSpace=wrap;html=1;" vertex="1" parent="yX2RTvN5pgzqg-5K6Qxc-30">
          <mxGeometry y="30" width="160" height="26" as="geometry" />
        </mxCell>
        <mxCell id="yX2RTvN5pgzqg-5K6Qxc-32" value="" style="line;strokeWidth=1;fillColor=none;align=left;verticalAlign=middle;spacingTop=-1;spacingLeft=3;spacingRight=3;rotatable=0;labelPosition=right;points=[];portConstraint=eastwest;strokeColor=inherit;" vertex="1" parent="yX2RTvN5pgzqg-5K6Qxc-30">
          <mxGeometry y="56" width="160" height="8" as="geometry" />
        </mxCell>
        <mxCell id="yX2RTvN5pgzqg-5K6Qxc-33" value="&lt;p style=&quot;margin: 0px 0px 0px 4px;&quot;&gt;+ UPDATE():&amp;nbsp;&lt;/p&gt;&lt;p style=&quot;margin: 0px 0px 0px 4px;&quot;&gt;&lt;/p&gt;&lt;ul&gt;&lt;li&gt;子弹移动&lt;/li&gt;&lt;li&gt;伤害判断&lt;/li&gt;&lt;/ul&gt;&lt;p&gt;&lt;/p&gt;" style="text;strokeColor=none;fillColor=none;align=left;verticalAlign=top;spacingLeft=4;spacingRight=4;overflow=hidden;rotatable=0;points=[[0,0.5],[1,0.5]];portConstraint=eastwest;whiteSpace=wrap;html=1;" vertex="1" parent="yX2RTvN5pgzqg-5K6Qxc-30">
          <mxGeometry y="64" width="160" height="76" as="geometry" />
        </mxCell>
        <mxCell id="yX2RTvN5pgzqg-5K6Qxc-37" style="edgeStyle=orthogonalEdgeStyle;rounded=0;orthogonalLoop=1;jettySize=auto;html=1;entryX=0.996;entryY=0.153;entryDx=0;entryDy=0;entryPerimeter=0;" edge="1" parent="1" source="yX2RTvN5pgzqg-5K6Qxc-27" target="yX2RTvN5pgzqg-5K6Qxc-11">
          <mxGeometry relative="1" as="geometry" />
        </mxCell>
        <mxCell id="yX2RTvN5pgzqg-5K6Qxc-38" value="敌人子弹" style="swimlane;fontStyle=1;align=center;verticalAlign=top;childLayout=stackLayout;horizontal=1;startSize=30;horizontalStack=0;resizeParent=1;resizeParentMax=0;resizeLast=0;collapsible=1;marginBottom=0;whiteSpace=wrap;html=1;" vertex="1" parent="1">
          <mxGeometry x="600" y="290" width="160" height="140" as="geometry">
            <mxRectangle x="560" y="160" width="150" height="40" as="alternateBounds" />
          </mxGeometry>
        </mxCell>
        <mxCell id="yX2RTvN5pgzqg-5K6Qxc-39" value="+ _dirction:&amp;nbsp; 方向&lt;div&gt;&lt;br&gt;&lt;/div&gt;" style="text;strokeColor=none;fillColor=none;align=left;verticalAlign=top;spacingLeft=4;spacingRight=4;overflow=hidden;rotatable=0;points=[[0,0.5],[1,0.5]];portConstraint=eastwest;whiteSpace=wrap;html=1;" vertex="1" parent="yX2RTvN5pgzqg-5K6Qxc-38">
          <mxGeometry y="30" width="160" height="26" as="geometry" />
        </mxCell>
        <mxCell id="yX2RTvN5pgzqg-5K6Qxc-40" value="" style="line;strokeWidth=1;fillColor=none;align=left;verticalAlign=middle;spacingTop=-1;spacingLeft=3;spacingRight=3;rotatable=0;labelPosition=right;points=[];portConstraint=eastwest;strokeColor=inherit;" vertex="1" parent="yX2RTvN5pgzqg-5K6Qxc-38">
          <mxGeometry y="56" width="160" height="8" as="geometry" />
        </mxCell>
        <mxCell id="yX2RTvN5pgzqg-5K6Qxc-41" value="&lt;p style=&quot;margin: 0px 0px 0px 4px;&quot;&gt;+ UPDATE():&amp;nbsp;&lt;/p&gt;&lt;p style=&quot;margin: 0px 0px 0px 4px;&quot;&gt;&lt;/p&gt;&lt;ul&gt;&lt;li&gt;子弹移动&lt;/li&gt;&lt;li&gt;伤害判断&lt;/li&gt;&lt;/ul&gt;&lt;p&gt;&lt;/p&gt;" style="text;strokeColor=none;fillColor=none;align=left;verticalAlign=top;spacingLeft=4;spacingRight=4;overflow=hidden;rotatable=0;points=[[0,0.5],[1,0.5]];portConstraint=eastwest;whiteSpace=wrap;html=1;" vertex="1" parent="yX2RTvN5pgzqg-5K6Qxc-38">
          <mxGeometry y="64" width="160" height="76" as="geometry" />
        </mxCell>
        <mxCell id="yX2RTvN5pgzqg-5K6Qxc-43" style="edgeStyle=orthogonalEdgeStyle;rounded=0;orthogonalLoop=1;jettySize=auto;html=1;exitX=0;exitY=0.5;exitDx=0;exitDy=0;" edge="1" parent="1" source="yX2RTvN5pgzqg-5K6Qxc-35" target="yX2RTvN5pgzqg-5K6Qxc-38">
          <mxGeometry relative="1" as="geometry" />
        </mxCell>
        <mxCell id="yX2RTvN5pgzqg-5K6Qxc-44" value="GameUI 游戏UI（单例)" style="swimlane;fontStyle=1;align=center;verticalAlign=top;childLayout=stackLayout;horizontal=1;startSize=26;horizontalStack=0;resizeParent=1;resizeParentMax=0;resizeLast=0;collapsible=1;marginBottom=0;whiteSpace=wrap;html=1;" vertex="1" parent="1">
          <mxGeometry x="340" y="460" width="200" height="140" as="geometry">
            <mxRectangle x="362" y="220" width="156" height="30" as="alternateBounds" />
          </mxGeometry>
        </mxCell>
        <mxCell id="yX2RTvN5pgzqg-5K6Qxc-45" value="+ _gamePass:&amp;nbsp; 游戏通关UI&lt;div&gt;&lt;br&gt;&lt;/div&gt;" style="text;strokeColor=none;fillColor=none;align=left;verticalAlign=top;spacingLeft=4;spacingRight=4;overflow=hidden;rotatable=0;points=[[0,0.5],[1,0.5]];portConstraint=eastwest;whiteSpace=wrap;html=1;" vertex="1" parent="yX2RTvN5pgzqg-5K6Qxc-44">
          <mxGeometry y="26" width="200" height="26" as="geometry" />
        </mxCell>
        <mxCell id="yX2RTvN5pgzqg-5K6Qxc-46" value="+ _gameOver:&amp;nbsp; 游戏结束UI" style="text;strokeColor=none;fillColor=none;align=left;verticalAlign=top;spacingLeft=4;spacingRight=4;overflow=hidden;rotatable=0;points=[[0,0.5],[1,0.5]];portConstraint=eastwest;whiteSpace=wrap;html=1;" vertex="1" parent="yX2RTvN5pgzqg-5K6Qxc-44">
          <mxGeometry y="52" width="200" height="26" as="geometry" />
        </mxCell>
        <mxCell id="yX2RTvN5pgzqg-5K6Qxc-47" value="+ _state:&amp;nbsp; 状态（跟随主角，射击）" style="text;strokeColor=none;fillColor=none;align=left;verticalAlign=top;spacingLeft=4;spacingRight=4;overflow=hidden;rotatable=0;points=[[0,0.5],[1,0.5]];portConstraint=eastwest;whiteSpace=wrap;html=1;" vertex="1" parent="yX2RTvN5pgzqg-5K6Qxc-44">
          <mxGeometry y="78" width="200" height="26" as="geometry" />
        </mxCell>
        <mxCell id="yX2RTvN5pgzqg-5K6Qxc-48" value="" style="line;strokeWidth=1;fillColor=none;align=left;verticalAlign=middle;spacingTop=-1;spacingLeft=3;spacingRight=3;rotatable=0;labelPosition=right;points=[];portConstraint=eastwest;strokeColor=inherit;" vertex="1" parent="yX2RTvN5pgzqg-5K6Qxc-44">
          <mxGeometry y="104" width="200" height="8" as="geometry" />
        </mxCell>
        <mxCell id="yX2RTvN5pgzqg-5K6Qxc-49" value="&lt;p style=&quot;margin: 0px 0px 0px 4px;&quot;&gt;START：&lt;span style=&quot;background-color: transparent; color: light-dark(rgb(0, 0, 0), rgb(255, 255, 255));&quot;&gt;重置按钮添加重置逻辑&lt;/span&gt;&lt;/p&gt;&lt;p style=&quot;margin: 0px 0px 0px 4px;&quot;&gt;&lt;br&gt;&lt;/p&gt;&lt;p&gt;&lt;/p&gt;" style="text;strokeColor=none;fillColor=none;align=left;verticalAlign=top;spacingLeft=4;spacingRight=4;overflow=hidden;rotatable=0;points=[[0,0.5],[1,0.5]];portConstraint=eastwest;whiteSpace=wrap;html=1;" vertex="1" parent="yX2RTvN5pgzqg-5K6Qxc-44">
          <mxGeometry y="112" width="200" height="28" as="geometry" />
        </mxCell>
        <mxCell id="yX2RTvN5pgzqg-5K6Qxc-59" style="edgeStyle=orthogonalEdgeStyle;rounded=0;orthogonalLoop=1;jettySize=auto;html=1;" edge="1" parent="1" source="yX2RTvN5pgzqg-5K6Qxc-33" target="yX2RTvN5pgzqg-5K6Qxc-44">
          <mxGeometry relative="1" as="geometry" />
        </mxCell>
        <mxCell id="yX2RTvN5pgzqg-5K6Qxc-60" style="edgeStyle=orthogonalEdgeStyle;rounded=0;orthogonalLoop=1;jettySize=auto;html=1;" edge="1" parent="1" source="yX2RTvN5pgzqg-5K6Qxc-41" target="yX2RTvN5pgzqg-5K6Qxc-44">
          <mxGeometry relative="1" as="geometry" />
        </mxCell>
        <mxCell id="yX2RTvN5pgzqg-5K6Qxc-64" style="edgeStyle=orthogonalEdgeStyle;rounded=0;orthogonalLoop=1;jettySize=auto;html=1;" edge="1" parent="1" source="yX2RTvN5pgzqg-5K6Qxc-12" target="yX2RTvN5pgzqg-5K6Qxc-30">
          <mxGeometry relative="1" as="geometry">
            <Array as="points">
              <mxPoint x="270" y="79" />
              <mxPoint x="270" y="350" />
            </Array>
          </mxGeometry>
        </mxCell>
      </root>
    </mxGraphModel>
  </diagram>
</mxfile>
